<svg xmlns="http://www.w3.org/2000/svg"><symbol id="logo" viewBox="0 0 524.8 313.8"><path fill="#999" d="M474.5 173.6l-115-51.3 17.9-9L417 128l57.5 45.6z"/><path fill="#72c8f1" d="M22.8 98.1s53.1 34.6 85 53.3 38.2 29.5 38.2 29.5-58.4-30.1-70.3-30.1-16-6.9-29.1-7.3-21.5 0-21.5 0 1.8-11.9 2.2-21.8c.4-8.3-4.5-23.6-4.5-23.6z"/><path d="M158.3 156.6c18.7 2.6 37.3 6.4 55.9 9.9l25.5 5c10.1 2.2 20.1 5.2 30.4 6.5 4 .6 10.4 1.7 12.4-3.1 1.3-3.2-.7-6.6-1.7-9.5-1.7-4.7-3.2-9.4-4.9-14.1l-3 3.1 46.8 6.5c7.4 1 14.9 1.7 22.2 3.2s15.7 5.7 15 14.5l2.5-2.5-96.9 7.9c-31.5 2.6-64.9 8.6-96 .8-28.8-7.2-54.4-22.8-81.9-33.4-13.4-5.2-27.4-9.3-41.7-10.5a114.3 114.3 0 0 0-11.7-.3c-.6.1-5.6.7-5.9.3s.5-4.5.5-4.8c.4-6.8 3.5-13.2 3.1-20s-1-13.3-1-20c0-3.3.5-6.6.5-9.9s-1.3-6.7-2-10.1-1.5-7.5 1.4-7.6 4.7 1.4 6.6 1.9A211 211 0 0 0 58.1 75c15.4 2.1 31 2.7 46.6 2.9s30-1 42.9 7.3c10.4 6.6 18.1 16.6 27.9 24.1s23.4 12.4 36.2 15.8c24.2 6.4 57.5 12.7 65.8 40.7 1.1 4 1.6 9.1-3.9 8.7-2.6-.1-5.1-1.1-7.6-1.6-8.3-1.9-16.5-4.2-24.8-6.3-14-3.5-28.2-6.6-42.5-9-11.2-1.9-22.8-3.9-34.2-3.9-3.2 0-3.2 5 0 5 11 0 22.1 1.9 32.9 3.7 14.3 2.4 28.4 5.5 42.5 9 7.7 1.9 15.3 4.3 23 5.9 4.4 1 9.4 3 13.9 2 12.3-2.6 4.2-20.1.1-26.3-7.4-11.2-19.3-18.5-31.5-23.4s-28-7.7-41.9-12.1a85.3 85.3 0 0 1-20.9-9.4c-6-3.8-11.1-8.7-16.2-13.6-9.9-9.4-20.1-18.1-34.1-20.4-15.8-2.5-32.3-1-48.2-1.8s-34.4-2.8-51-7.5c-3.2-.9-7.3-3-10-.1S21 74.8 22 79c1.9 7.7.8 15.5 1 23.5s1.7 14.4-.1 21.5c-1.3 5.2-4.2 14.9-1.4 19.9 1.1 2 2.8 2 4.8 2 4.2-.1 8.4-.4 12.7-.2 33.8 1.4 64 19.7 94.4 32.7 14.1 6.1 28.7 11.3 44 13.7s33.7 1.1 50.5-.2l105.8-8.7 25.7-2.1a2.6 2.6 0 0 0 2.5-2.5c1.4-17-18.9-19.5-31.1-21.2l-56.6-7.8c-1.7-.3-3.8 1-3.1 3.1 1.6 4.6 3.2 9.3 4.9 14 .5 1.5 2.7 5.3 1.1 6.7s-3.6 0-4.5-.1c-8.9-.8-17.6-3.3-26.2-5.4s-14.8-3.1-22.2-4.5c-21.4-4.2-42.9-8.6-64.5-11.6-3.2-.5-4.5 4.3-1.4 4.8z"/><path d="M390.9 114.7l-36.4-10.9c-1.6-.5-4.5-2-6.2-1.9s.7.9.7.6-1.4-2.4-1.7-2.9l-9.9-16.7a2.5 2.5 0 0 0-4.6 1.3v10.6L337 93l-5.9-5.9a2.4 2.4 0 0 0-3.5 0l-5.7 5.6 2.5-.6c-9.4-3.6-18.6-7.8-27.7-11.9-10.7-4.7-21.4-9.7-32-14.6-6.3-2.8-12.7-6-19.6-6.8s-11.4 1.1-16.9 3.5c-8.7 3.7-17.5 7.1-26 11.3-6.3 3.1-14.3 6.9-18 13.3-2.4 4.1-3.7 9.3-5.1 13.8-.7 2-2.3 5.1-1.4 7.1s4.4 3.9 6.2 5c7.2 4.7 15.3 7.9 23.3 10.7 12.4 4.4 25 8.4 37.5 12.6 5.5 1.8 12.3 3.1 17.5 5.9-1.9-1-.5-.1 0 .7a37.6 37.6 0 0 0 2.5 3.1c2 2.4 3.8 5.1 6 7.3s8.9 2.2 12.9 2.5l4.3.4c.5.1 1.7.2.6 0l3.3.6 15.9 2.5c12.3 2 24.7 3.9 37 6 4.9.8 8.7 4.7 11.4 9.7 4.9 8.8 7.9 19.5 9.9 29.4.2 1.4 1.8 2 3.1 1.8a29.3 29.3 0 0 1 9.8-.1c5.9.9 9.6 4.3 13.5 8.5 8.6 9.1 16.6 18.8 23 29.6s10.4 22.3 16.5 33c3.9 6.9 8.1 13.7 12.5 20.3.6 1 2.3 1.8 3.4.9 4-3 4.5-10.1 5.6-14.6 2.2-9.2 5.8-18.2 8.7-27.1a152.1 152.1 0 0 0 4.3-14.6c1.2-5 1.3-9.9 1.9-15 1.4-11.3 4.1-22.6 5.8-33.9l2.4-16c.4-2.4.9-3.7-.6-5.6s-5.5-5.5-8.2-8.1c-10.2-9.6-20.7-19.3-32.5-27-13.4-8.8-29.1-14.8-43.7-21.3-2.9-1.3-5.4 3-2.5 4.3 17.4 7.8 36 15 51.2 26.6a312.4 312.4 0 0 1 32.5 29.4l-.6-2.4c-1.6 11.4-3.1 23-5.2 34.4-1.1 5.7-2.4 11.4-3.2 17.2s-1 11.3-2.3 16.9c-2.7 11.1-6.8 21.8-10.4 32.6-1.1 3.4-2.1 6.7-2.9 10.2s-1.1 8.3-2.8 9.7l3.4.9c-4.9-7.4-9.6-15-13.9-22.8-6.7-12.2-11.2-25.4-19.2-37-6.8-9.9-14.7-20-23.6-28.2-6.4-6-15.9-7.3-24.3-5.7l3.1 1.8c-2.1-10.6-5.4-22-10.8-31.3-2.2-3.9-5.2-7.6-9.1-9.8a14 14 0 0 0-3.4-1.3l-1-.2-38.9-6.2c-10.8-1.7-21.7-4-32.7-4.3-2.8-.1-.1-.1-.2.4s-2.3-2.9-2.8-3.5c-2.2-2.7-4.3-6-6.8-8.4s-2.8-1.5-4.5-2.1l-13.9-4.7c-16.4-5.5-33.5-10.1-49.3-17.2-5.2-2.3-12-5-15.7-9.5l.6 2.4a144.8 144.8 0 0 1 5.3-15.7c2.3-5.6 7.9-8.6 13-11.4a202.9 202.9 0 0 1 19.5-9.1c5.3-2.2 10.6-5 16.1-6.5 9.4-2.7 18.8 2.1 27.1 6 14.6 6.7 29.1 13.4 43.9 19.7 5.2 2.3 10.5 4.7 15.8 6.7a2.8 2.8 0 0 0 2.5-.6l5.6-5.7h-3.5l5.9 6a2.6 2.6 0 0 0 4.3-1.8V84.2l-4.7 1.2 10.3 17.4c2.3 3.8 4.2 4.1 8.4 5.4l37.8 11.4c3.1.9 4.4-3.9 1.3-4.9z"/><path d="M419.7 163l5.7 16.3 4.1-2.5-13.4-13.4a2.5 2.5 0 0 0-4.2 2.4l3.5 16.5 4.1-2.4c-3.1-3.1-6.6-6.1-9.4-9.4l-.5-.7-1.8-3.1-3.5-5.7a2.6 2.6 0 0 0-4.7 1.3v9.7l4.7-1.3L398 156c-1.2-2.9-5.5-.4-4.3 2.6l6.3 14.6c1 2.4 4.6 1.1 4.6-1.2v-9.7l-4.6 1.3c2 3.3 3.9 7.1 6.4 10.2s6.4 6.5 9.6 9.6 4.7 0 4.2-2.4l-3.5-16.5-4.2 2.4 13.5 13.5c1.7 1.6 5-.1 4.2-2.5l-5.6-16.3c-1.1-3-5.9-1.7-4.9 1.4zM214 122.3c.6-5.8 1.3-15.5 6.7-18.8s13.1-4.8 19.5-6.1c3.1-.6 1.8-5.5-1.3-4.8-7.2 1.4-16.9 3-22.6 7.9s-6.6 14.9-7.3 21.8c-.3 3.2 4.7 3.2 5 0z"/></symbol></svg>